<svg version="1.1" id="Layer_1" xmlns="http://www.w3.org/2000/svg" xmlns:xlink="http://www.w3.org/1999/xlink" x="0px" y="0px"
	 width="100%" viewBox="0 0 496 496" enable-background="new 0 0 496 496" xml:space="preserve">
<path fill="#000000" opacity="1.000000" stroke="none" 
	d="
M113.974083,324.033813 
	C132.484497,350.437347 157.425537,363.741455 189.454147,362.602966 
	C207.517487,361.960846 223.156525,354.644989 237.530807,343.894989 
	C259.318298,327.600891 276.621155,307.296753 291.685638,284.907806 
	C298.656952,274.546997 305.421173,264.045807 312.186127,253.548248 
	C313.398621,251.666779 315.265259,250.025742 315.267029,247.639191 
	C314.539215,246.476364 313.537872,246.392685 312.524506,246.391342 
	C301.691315,246.376907 290.857788,246.416702 280.025238,246.329758 
	C277.376190,246.308487 276.149048,247.715149 275.261292,249.905640 
	C271.945129,258.088013 268.467957,266.207062 265.273743,274.436279 
	C263.258728,279.627594 265.157227,282.980316 270.632233,284.594208 
	C272.143616,285.039734 274.150146,284.703156 274.195953,287.811157 
	C264.989380,287.811157 255.830582,287.811157 246.708328,287.811157 
	C246.453079,285.348175 247.747375,285.054474 249.088776,284.694702 
	C255.358124,283.013153 259.388153,278.866058 261.838562,273.003021 
	C273.079224,246.108078 284.322937,219.214371 295.561829,192.318665 
	C295.754242,191.858231 295.799744,191.305008 296.082336,190.918259 
	C302.192749,182.556274 296.945679,175.509125 293.309326,168.413071 
	C291.822876,165.512375 288.943420,163.992432 285.675293,163.240463 
	C283.473053,162.733765 281.032806,162.851624 279.028442,161.224670 
	C279.486664,158.186935 281.864563,158.901138 283.639435,158.875458 
	C290.971436,158.769302 298.311401,158.956573 305.635742,158.688522 
	C309.202454,158.557999 311.004364,159.863297 312.344666,163.138626 
	C319.155029,179.781204 326.172455,196.339157 333.138885,212.917694 
	C333.964508,214.882507 334.921844,216.791962 336.614380,220.446136 
	C338.669403,217.786865 339.933899,215.610001 341.692932,213.960495 
	C354.857117,201.615860 375.518036,199.479874 392.390778,208.588593 
	C407.411438,216.697449 417.023346,236.235321 413.984711,252.482101 
	C410.299286,272.187317 396.284119,286.510712 377.944489,289.139557 
	C371.305817,290.091156 364.707581,288.914612 358.078308,288.518951 
	C349.278351,287.993683 340.420502,288.464844 331.587677,288.443085 
	C329.691803,288.438416 327.576904,289.073090 325.934723,287.062531 
	C326.845062,284.173553 329.368866,285.035980 331.296600,284.842499 
	C337.106262,284.259491 339.615204,280.890259 337.914825,275.309113 
	C335.241058,266.533264 331.470154,258.170837 327.785950,249.788803 
	C325.847351,245.378311 322.258240,244.896408 319.552032,248.900558 
	C313.397858,258.006378 307.462250,267.263000 301.572479,276.543823 
	C284.588867,303.305908 265.212921,327.906647 239.601486,347.136993 
	C221.420395,360.788269 201.409882,367.352814 178.516830,365.638641 
	C149.088943,363.435150 126.805443,349.497101 110.801079,325.294312 
	C102.396950,312.585052 98.280190,298.285889 97.613228,282.924835 
	C96.443626,255.987061 105.307625,232.866592 125.095566,214.865982 
	C132.840347,207.820740 136.478821,200.842346 138.043076,190.499344 
	C141.598999,166.987228 154.519272,149.936264 178.434219,143.437225 
	C190.752319,140.089706 203.148712,140.469131 215.049942,145.958786 
	C222.320419,149.312408 222.350052,149.248154 227.253540,143.405045 
	C229.774628,145.826889 230.503510,179.814606 228.102295,184.753922 
	C225.367661,184.039734 225.972610,181.686630 225.890945,179.880127 
	C225.710068,175.879593 225.342545,171.947922 224.368546,168.032455 
	C217.798050,141.618973 187.351379,141.857010 172.943268,154.855270 
	C162.557556,164.224747 158.466400,176.471497 157.325851,189.990921 
	C157.000717,193.844894 158.421631,195.230118 162.331390,193.903275 
	C168.375137,191.852219 174.751419,191.707474 181.028931,191.024048 
	C183.963364,190.704559 186.634857,191.202698 189.018600,193.078751 
	C192.166626,195.556335 193.243393,198.679779 191.633087,202.344177 
	C190.071548,205.897537 186.983673,207.145203 183.354828,206.209473 
	C179.514404,205.219147 177.565598,202.487656 177.752853,198.429260 
	C177.798096,197.448837 177.989120,196.475143 178.154190,195.174728 
	C171.797562,194.921921 165.887299,196.341766 160.027115,198.148254 
	C158.428436,198.641083 157.599960,199.561478 157.285355,201.275909 
	C153.656326,221.052246 170.577591,247.877411 190.003647,253.052765 
	C210.760330,258.582611 227.801666,249.562027 233.147049,230.227982 
	C234.228104,226.317825 233.852814,222.063385 235.669220,218.303604 
	C238.145020,218.472260 238.132538,220.120224 238.013229,221.566833 
	C236.263977,242.776779 225.668900,260.951080 201.104126,263.963043 
	C169.395203,267.851013 144.418777,249.660828 137.779144,219.567520 
	C137.172974,216.820099 136.790039,214.023422 136.303558,211.250305 
	C124.647293,213.374405 105.788170,242.201981 102.141975,262.427368 
	C98.171272,284.452728 102.500664,304.701660 113.974083,324.033813 
M388.550812,282.122009 
	C405.471283,272.748169 414.032928,255.477921 410.127960,238.436020 
	C406.499359,222.600311 396.831818,211.879471 381.316528,207.613480 
	C365.500549,203.264816 351.831665,208.179184 340.585297,220.101883 
	C338.299316,222.525314 338.008331,224.693848 339.299164,227.708572 
	C345.388824,241.931030 351.461029,256.165192 357.229492,270.519745 
	C362.650146,284.008667 373.883392,289.087036 388.550812,282.122009 
M279.618317,239.980667 
	C279.058289,242.927979 281.190887,242.854080 283.013336,242.858276 
	C294.001282,242.883606 304.990723,242.935989 315.976929,242.783920 
	C321.032532,242.713943 323.341034,238.987854 321.418854,234.348511 
	C315.560333,220.208221 309.666199,206.082565 303.731323,191.974182 
	C303.216888,190.751282 303.082977,189.096954 301.023499,188.475937 
	C293.934357,205.505386 286.905823,222.389221 279.618317,239.980667 
z"/>
<path fill="#000000" opacity="1.000000" stroke="none" 
	d="
M185.543610,304.666382 
	C187.381409,307.896454 184.196228,310.697510 186.172211,313.901337 
	C183.577225,313.781189 181.590057,312.172882 179.553802,314.745850 
	C178.610489,310.439148 177.777466,307.008667 179.746109,304.213898 
	C180.899490,302.576508 183.416275,303.446655 185.543610,304.666382 
z"/>
<path fill="#000000" opacity="1.000000" stroke="none" 
	d="
M200.966827,311.603058 
	C201.920013,312.321960 202.899567,312.796356 204.551315,313.596252 
	C202.011520,314.568146 199.584717,315.185638 198.416321,313.323944 
	C196.815262,310.772858 196.981537,307.258698 198.098053,304.677643 
	C199.112701,302.332031 202.012375,303.140259 205.050339,304.073029 
	C201.290512,305.986938 203.545868,307.560333 204.681549,308.784760 
	C204.149216,311.207672 201.907791,310.164368 200.966827,311.603058 
z"/>
<path fill="#000000" opacity="1.000000" stroke="none" 
	d="
M345.944122,312.633911 
	C345.770355,311.041809 345.628998,309.885986 345.695801,308.742371 
	C345.821838,306.582764 344.989349,303.831635 348.651520,303.667633 
	C351.646820,303.533539 353.877197,304.462250 354.406921,307.708282 
	C354.882904,310.624878 354.003448,313.043030 351.030396,314.025299 
	C349.357239,314.578125 347.442627,314.833344 345.944122,312.633911 
M350.316498,306.760986 
	C348.030396,307.832581 348.041412,309.453613 349.184021,311.685272 
	C351.947662,310.697144 354.109528,309.826324 350.316498,306.760986 
z"/>
<path fill="#000000" opacity="1.000000" stroke="none" 
	d="
M145.846298,306.949768 
	C143.696609,306.117554 141.893677,305.730804 140.628632,307.712555 
	C139.248642,309.874298 141.299194,312.650818 143.828629,312.058990 
	C145.022232,311.779724 145.902481,310.291718 147.562637,311.086487 
	C147.182449,314.290985 145.061096,314.586914 142.564438,314.402283 
	C139.873444,314.203339 138.208099,312.808533 137.768631,310.173859 
	C137.361191,307.731201 137.749664,305.365845 140.149231,304.106384 
	C142.315689,302.969208 144.692123,302.791443 146.670593,304.603638 
	C147.561218,305.419434 148.255524,306.602936 145.846298,306.949768 
z"/>
<path fill="#000000" opacity="1.000000" stroke="none" 
	d="
M299.018402,312.393616 
	C297.388275,312.961578 296.091461,313.546143 293.930939,314.520020 
	C294.537781,310.163330 296.112152,306.849701 298.281342,303.284729 
	C301.448303,306.164368 302.059784,309.779785 303.025604,313.250885 
	C301.239532,314.423767 300.576141,312.404755 299.018402,312.393616 
z"/>
<path fill="#000000" opacity="1.000000" stroke="none" 
	d="
M368.658936,305.061584 
	C369.639709,303.451324 370.715607,303.154633 371.356567,304.715332 
	C372.520966,307.550415 374.327057,310.209534 374.487488,314.199646 
	C371.462952,312.119232 368.775696,311.723969 366.001007,314.328949 
	C365.456177,310.475525 367.604187,308.102020 368.658936,305.061584 
z"/>
<path fill="#000000" opacity="1.000000" stroke="none" 
	d="
M165.624634,313.302368 
	C163.177383,311.149628 161.436768,313.606964 159.100052,313.802155 
	C159.305862,309.776367 160.866013,306.554626 163.307587,303.267212 
	C165.834732,306.052612 166.773453,309.183472 167.578384,312.336823 
	C167.932297,313.723297 167.137466,314.092102 165.624634,313.302368 
z"/>
<path fill="#000000" opacity="1.000000" stroke="none" 
	d="
M319.467712,306.631470 
	C317.227386,309.397400 320.142578,311.083282 320.410400,313.519318 
	C318.515747,314.284729 316.611237,312.143066 314.883514,313.918488 
	C313.557648,310.337738 314.060333,307.312988 315.008759,303.431244 
	C316.678955,307.690704 318.248932,303.758362 319.779877,303.915497 
	C320.573914,304.987091 320.084137,305.670868 319.467712,306.631470 
z"/>
<path fill="#000000" opacity="1.000000" stroke="none" 
	d="
M220.670486,305.661743 
	C221.993103,305.009155 222.522797,303.328705 224.583588,304.089752 
	C223.976257,307.537842 220.677490,309.982758 220.417801,313.750427 
	C219.022522,310.576050 217.627243,307.401672 216.223511,304.208038 
	C218.537247,302.626587 218.886322,305.695526 220.670486,305.661743 
z"/>
<path fill="#000000" opacity="1.000000" stroke="none" 
	d="
M331.777344,311.401154 
	C332.024902,308.697723 330.973114,306.150146 333.835205,302.863037 
	C334.470825,307.346527 334.755920,310.568054 333.703278,313.873413 
	C332.052673,313.808014 331.945709,312.788361 331.777344,311.401154 
z"/>
</svg>